<?xml version="1.0" standalone="no"?>
<!DOCTYPE svg PUBLIC "-//W3C//DTD SVG 20010904//EN"
 "http://www.w3.org/TR/2001/REC-SVG-20010904/DTD/svg10.dtd">
<svg version="1.0" xmlns="http://www.w3.org/2000/svg"
 width="240" height="166" viewBox="0 0 3400.000000 1667.000000"
 preserveAspectRatio="xMidYMid meet">

<g transform="translate(0.000000,1667.000000) scale(0.100000,-0.100000)"
fill="#254c94" stroke="none">
<path d="M18477 14657 c-91 -29 -150 -112 -150 -212 0 -130 88 -217 218 -217
201 0 298 230 156 372 -64 64 -139 83 -224 57z"/>
<path d="M15526 13665 c-103 -37 -159 -125 -141 -221 10 -58 1068 -2165 1105
-2202 70 -70 204 -69 272 3 22 22 210 388 568 1104 510 1021 534 1073 534
1123 -2 132 -117 228 -238 197 -97 -24 -83 0 -561 -958 l-440 -881 -438 877
c-242 483 -451 891 -465 906 -53 56 -129 77 -196 52z"/>
<path d="M18465 13655 c-43 -24 -74 -55 -96 -97 -18 -36 -19 -75 -19 -1125 l0
-1089 23 -44 c72 -144 274 -143 348 1 19 38 19 62 17 1143 l-3 1104 -31 38
c-50 63 -78 78 -147 82 -44 2 -71 -2 -92 -13z"/>
<path d="M20235 13654 c-251 -45 -455 -154 -651 -349 -262 -261 -375 -551
-360 -925 12 -329 120 -581 349 -813 237 -242 503 -360 842 -374 301 -12 581
79 812 264 l78 62 5 -97 c3 -63 11 -107 22 -127 78 -142 275 -138 349 7 18 35
19 67 19 640 0 635 -3 692 -48 848 -53 181 -147 342 -289 491 -196 205 -419
328 -683 373 -115 20 -334 20 -445 0z m446 -403 c80 -21 209 -81 269 -125 60
-45 160 -148 206 -212 56 -79 98 -168 125 -269 30 -112 30 -316 0 -429 -65
-243 -252 -462 -479 -563 -209 -92 -501 -88 -707 12 -177 85 -342 257 -417
436 -47 112 -61 191 -61 334 1 243 68 407 237 584 131 136 270 213 450 247 96
18 278 11 377 -15z"/>
<path d="M23171 13654 c-349 -59 -671 -289 -862 -616 -188 -321 -206 -783 -45
-1124 63 -132 124 -221 229 -331 205 -214 436 -337 708 -377 366 -54 714 42
987 271 l52 45 0 -217 c0 -241 -11 -320 -62 -443 -74 -178 -234 -350 -405
-436 -84 -42 -219 -76 -323 -83 -232 -13 -433 55 -611 209 -90 77 -112 88
-182 88 -103 0 -166 -49 -188 -148 -25 -107 35 -197 211 -321 211 -148 443
-221 706 -221 223 0 375 34 559 125 134 67 223 132 337 247 203 205 318 450
348 739 14 143 14 2410 -1 2464 -15 55 -52 101 -101 126 -59 30 -152 24 -201
-14 -62 -47 -81 -89 -85 -194 -3 -51 -8 -93 -11 -93 -4 0 -18 11 -31 25 -40
42 -196 144 -283 185 -99 46 -227 85 -331 99 -105 15 -312 12 -415 -5z m464
-409 c245 -71 451 -259 549 -501 68 -166 75 -397 17 -574 -88 -273 -317 -488
-596 -561 -112 -29 -307 -29 -420 0 -276 72 -507 289 -596 561 -58 175 -51
408 17 574 113 278 365 480 657 527 96 15 273 3 372 -26z"/>
<path d="M26105 13654 c-237 -42 -444 -149 -626 -322 -193 -183 -310 -387
-366 -637 -24 -108 -28 -350 -9 -470 42 -253 157 -476 340 -661 186 -187 386
-297 636 -351 117 -25 381 -25 499 0 179 38 356 119 496 226 147 112 185 164
185 252 0 133 -107 219 -235 190 -40 -9 -69 -27 -140 -87 -104 -87 -232 -154
-350 -185 -104 -27 -288 -29 -393 -4 -286 67 -518 276 -613 554 -11 30 -19 58
-19 62 0 5 431 10 958 11 l957 3 42 23 c24 12 55 41 70 64 24 35 29 54 31 122
10 234 -82 517 -232 717 -202 268 -477 440 -790 494 -110 19 -332 18 -441 -1z
m435 -400 c226 -58 436 -226 539 -431 30 -58 71 -166 71 -185 0 -4 -369 -8
-820 -8 -524 0 -820 4 -820 10 0 25 63 177 97 232 52 86 174 212 260 268 92
61 201 106 300 125 97 18 281 13 373 -11z"/>
<path d="M28135 13655 c-43 -22 -93 -82 -105 -126 -7 -24 -9 -414 -8 -1116 l3
-1078 23 -42 c31 -59 86 -94 159 -100 78 -6 136 23 178 92 l30 48 5 701 5 701
29 75 c35 92 55 126 122 211 233 292 660 343 963 114 111 -84 199 -209 248
-352 15 -42 18 -129 22 -749 l6 -701 30 -48 c20 -32 45 -57 75 -73 92 -49 215
-11 264 83 21 39 21 55 26 735 5 639 7 699 24 750 96 289 336 477 630 497 310
20 595 -169 705 -470 l26 -72 5 -700 5 -700 24 -42 c14 -24 42 -55 64 -70 34
-24 50 -28 108 -28 59 0 73 4 110 30 23 17 52 48 63 70 21 39 21 53 24 680 3
666 -1 755 -39 900 -78 299 -331 589 -622 712 -151 63 -229 78 -432 77 -215 0
-287 -15 -460 -98 -160 -76 -305 -193 -407 -326 l-27 -34 -22 29 c-52 70 -201
207 -283 260 -174 113 -336 165 -543 173 -261 9 -460 -46 -670 -189 l-73 -49
0 27 c0 81 -45 160 -110 193 -47 24 -132 26 -175 5z"/>
<path d="M8936 10584 c8 -32 141 -450 342 -1079 211 -658 200 -612 208 -819
l7 -176 -254 0 c-379 0 -691 -20 -979 -63 -80 -11 -165 -21 -190 -21 l-44 -1
-176 207 c-96 113 -224 263 -284 332 l-110 126 -87 0 -88 0 58 -167 c33 -93
93 -264 134 -380 l75 -213 -133 -377 c-73 -208 -131 -381 -128 -385 6 -11 117
-10 145 1 13 5 149 158 303 340 l280 331 50 -4 c28 -3 111 -14 185 -25 74 -11
183 -25 241 -31 141 -14 558 -30 795 -30 l191 0 -5 -187 -4 -188 -45 -140
c-24 -77 -129 -401 -233 -720 -193 -593 -270 -835 -270 -848 0 -4 54 -7 120
-7 l120 0 45 63 c25 34 132 194 238 354 l192 293 200 1 c110 1 214 4 230 8 29
6 30 9 33 64 2 35 -2 64 -9 73 -9 11 -46 14 -175 14 -95 0 -164 4 -164 9 0 5
65 108 144 229 l145 219 201 5 c225 5 220 3 220 76 0 81 -1 82 -165 82 -80 0
-145 2 -145 5 0 7 351 529 379 565 l20 25 593 6 593 5 195 71 195 71 3 35 c2
26 -1 36 -15 40 -10 3 -99 36 -198 73 l-180 69 -591 5 c-679 6 -601 -7 -681
114 -26 39 -104 161 -174 272 -148 234 -151 214 37 214 143 0 146 2 142 87 -3
55 -4 58 -33 64 -16 4 -109 7 -206 8 l-177 1 -142 216 c-78 119 -144 223 -147
230 -4 12 25 14 161 14 l166 0 11 28 c11 26 7 107 -5 119 -3 3 -106 8 -229 11
l-223 5 -39 61 c-87 136 -380 573 -407 609 l-30 37 -119 0 -119 0 6 -26z"/>
<path d="M15510 9587 c-47 -15 -107 -78 -120 -125 -7 -28 -9 -567 -8 -1749 l3
-1709 28 -43 c68 -102 201 -120 294 -38 66 58 63 24 63 807 0 390 2 710 6 710
3 0 36 -25 74 -55 249 -202 554 -293 885 -264 157 14 286 48 419 112 372 180
641 540 695 931 16 110 14 309 -4 409 -45 256 -159 473 -350 662 -158 158
-350 269 -550 320 -403 102 -808 14 -1112 -242 -28 -23 -53 -43 -56 -43 -3 0
-7 47 -9 104 -3 99 -4 106 -34 143 -17 21 -44 46 -60 55 -38 22 -120 30 -164
15z m1335 -411 c191 -53 375 -188 488 -359 175 -264 180 -632 12 -902 -115
-185 -300 -325 -500 -379 -86 -24 -267 -32 -362 -16 -327 52 -597 299 -684
625 -29 112 -30 307 0 420 80 308 332 551 641 620 87 19 322 14 405 -9z"/>
<path d="M19455 9594 c-16 -2 -66 -9 -110 -15 -414 -55 -827 -403 -964 -814
-74 -223 -84 -509 -25 -739 68 -262 248 -516 489 -688 387 -278 943 -297 1349
-48 44 28 109 73 144 101 l62 51 0 -69 c0 -123 38 -201 120 -243 35 -18 129
-17 166 3 44 22 91 80 103 124 14 49 14 1113 1 1243 -20 189 -87 374 -195 540
-63 96 -248 283 -345 347 -142 95 -293 158 -451 188 -80 15 -290 27 -344 19z
m283 -410 c208 -43 404 -179 529 -367 101 -152 138 -295 131 -501 -5 -110 -10
-146 -36 -224 -40 -123 -98 -218 -195 -319 -136 -142 -290 -225 -470 -253
-104 -17 -281 -8 -375 19 -231 67 -435 243 -537 464 -57 124 -69 185 -69 352
0 168 12 228 70 353 88 191 266 362 452 434 40 16 101 35 135 42 87 20 271 19
365 0z"/>
<path d="M21493 9590 c-48 -11 -98 -54 -122 -103 -21 -43 -21 -46 -21 -1134
l0 -1090 23 -44 c68 -128 248 -139 332 -20 l30 43 5 616 c6 703 5 692 90 867
105 216 300 383 520 445 41 11 125 24 186 29 122 9 155 22 202 75 95 108 41
279 -100 317 -58 15 -243 -3 -374 -36 -136 -35 -315 -125 -427 -215 -48 -38
-90 -70 -92 -70 -3 0 -5 41 -5 90 0 70 -4 99 -20 129 -44 86 -129 125 -227
101z"/>
<path d="M24078 9589 c-198 -23 -413 -108 -573 -227 -44 -32 -121 -101 -170
-153 -222 -230 -327 -478 -342 -799 -16 -365 109 -683 370 -937 249 -242 520
-354 857 -355 224 -1 395 38 574 130 86 44 226 141 255 175 7 9 17 17 21 17 5
0 10 -44 12 -98 3 -89 6 -103 31 -139 47 -68 134 -102 211 -82 55 15 102 52
127 100 20 39 20 52 17 692 l-4 652 -28 105 c-33 125 -105 280 -178 387 -118
173 -340 358 -526 438 -199 86 -429 119 -654 94z m377 -413 c180 -50 348 -168
464 -326 63 -84 95 -148 128 -257 23 -78 26 -105 27 -233 0 -121 -3 -158 -22
-225 -80 -284 -309 -517 -582 -595 -97 -27 -273 -37 -377 -21 -313 50 -589
295 -677 601 -41 144 -39 343 6 489 85 281 336 511 628 576 87 19 322 14 405
-9z"/>
<path d="M2410 8829 c-125 -21 -260 -111 -332 -224 -61 -94 -81 -175 -76 -304
4 -97 7 -113 41 -183 126 -262 424 -367 685 -243 131 62 230 186 269 338 19
77 12 206 -16 288 -59 173 -221 304 -404 329 -88 11 -90 11 -167 -1z m185
-288 c44 -20 110 -87 126 -129 15 -39 13 -134 -4 -173 -35 -81 -125 -138 -217
-139 -67 0 -141 39 -186 97 -26 33 -29 48 -32 119 -3 67 0 88 17 122 21 41 61
77 116 106 41 21 130 20 180 -3z"/>
<path d="M3470 8330 l0 -80 155 0 155 0 0 80 0 80 -155 0 -155 0 0 -80z"/>
<path d="M4080 8330 l0 -80 155 0 155 0 0 80 0 80 -155 0 -155 0 0 -80z"/>
<path d="M4690 8330 l0 -81 153 3 152 3 3 78 3 77 -156 0 -155 0 0 -80z"/>
<path d="M5300 8330 l0 -80 150 0 150 0 0 80 0 80 -150 0 -150 0 0 -80z"/>
<path d="M5910 8330 l0 -80 150 0 150 0 0 80 0 80 -150 0 -150 0 0 -80z"/>
<path d="M6512 8333 l3 -78 153 -3 152 -3 0 81 0 80 -155 0 -156 0 3 -77z"/>
<path d="M24555 5346 c-455 -212 -430 -199 -460 -245 -92 -138 17 -327 179
-309 24 3 168 64 349 148 l308 142 318 -146 c351 -162 369 -167 452 -123 115
61 137 230 41 320 -22 20 -793 388 -811 387 -4 -1 -172 -79 -376 -174z"/>
<path d="M15505 4472 c-74 -35 -125 -112 -125 -187 0 -51 1075 -2201 1119
-2238 72 -60 180 -60 251 0 24 20 163 288 573 1107 497 994 541 1085 541 1131
0 109 -92 205 -196 205 -41 0 -108 -30 -138 -61 -12 -13 -220 -419 -461 -901
-241 -483 -441 -878 -444 -878 -3 0 -205 400 -450 890 l-445 889 -46 27 c-60
35 -126 41 -179 16z"/>
<path d="M19328 4480 c-170 -20 -340 -74 -473 -152 -282 -165 -495 -431 -580
-723 -38 -132 -48 -206 -47 -365 0 -273 69 -498 218 -706 98 -137 251 -278
400 -367 363 -217 879 -216 1242 2 317 190 530 490 599 841 24 125 22 365 -5
490 -76 358 -308 666 -633 844 -195 107 -489 162 -721 136z m304 -404 c157
-30 285 -96 401 -205 205 -194 287 -395 275 -679 -9 -216 -82 -376 -248 -543
-110 -112 -192 -164 -330 -210 -83 -28 -112 -32 -230 -36 -98 -4 -154 -1 -206
10 -306 65 -559 302 -646 604 -33 113 -33 343 0 456 87 301 344 542 642 602
88 18 252 18 342 1z"/>
<path d="M22260 4479 c-282 -30 -539 -157 -742 -365 -92 -95 -125 -136 -184
-230 -170 -273 -220 -632 -134 -968 67 -260 245 -511 485 -687 409 -299 1021
-299 1428 -1 173 126 216 182 217 280 0 112 -78 192 -190 192 -56 0 -105 -23
-170 -79 -194 -169 -362 -229 -609 -218 -142 6 -211 22 -326 76 -154 73 -312
226 -390 380 -150 298 -114 653 92 912 110 138 278 250 443 296 83 23 337 25
420 4 132 -34 244 -94 361 -194 75 -65 121 -87 179 -87 111 0 190 80 190 191
0 97 -46 156 -216 281 -229 167 -555 250 -854 217z"/>
<path d="M24795 4480 c-284 -33 -516 -143 -724 -345 -210 -203 -325 -423 -365
-697 -39 -262 2 -534 114 -753 116 -226 336 -442 565 -557 327 -164 747 -166
1079 -5 164 80 336 209 373 281 39 75 31 179 -18 233 -53 57 -152 79 -224 49
-18 -8 -71 -46 -117 -85 -91 -78 -221 -148 -328 -178 -50 -14 -102 -18 -225
-18 -155 1 -163 2 -255 33 -244 84 -432 261 -522 492 -14 36 -28 77 -32 93
l-6 27 957 0 c942 0 957 0 999 20 24 12 54 39 70 62 26 37 29 51 32 138 19
541 -420 1078 -973 1189 -120 24 -291 33 -400 21z m313 -406 c287 -59 527
-272 623 -553 11 -30 19 -60 19 -68 0 -11 -140 -13 -820 -13 -451 0 -820 4
-820 8 0 5 8 33 19 63 99 290 341 506 631 564 91 18 256 18 348 -1z"/>
</g>
</svg>
